[img]http://img694.imageshack.us/img694/8967/collz.jpg[/img]
[code]
Colombiana 2011 CAM XViD - IMAGiNE                                                                

Ripper ...........: IMAGiNE              IMDB Rating.......: 5.6/10                             

Video Codec.......: XViD                 Release Date......: 28/08/11

Audio Codec.......: MP3                  Theatre Date......: 26/08/11

Audio Bitrate.....: 128                  Runtime...........: 1h 43mn

Subtitles.........: NIL                  Language..........: ENGLISH

Resolution........: 720 x 304            IMDb URL..........: http://www.imdb.com/title/tt1657507/

DETAILS:

Video
ID                               : 0
Format                           : MPEG-4 Visual
Format profile                   : Advanced Simple@L5
Format settings, BVOP            : Yes
Format settings, QPel            : No
Format settings, GMC             : No warppoints
Format settings, Matrix          : Default (MPEG)
Muxing mode                      : Packed bitstream
Codec ID                         : XVID
Codec ID/Hint                    : XviD
Duration                         : 1h 43mn
Bit rate                         : 1 749 Kbps
Width                            : 720 pixels
Height                           : 304 pixels
Display aspect ratio             : 2.35
Frame rate                       : 29.970 fps
Resolution                       : 24 bits
Colorimetry                      : 4:2:0
Scan type                        : Progressive
Bits/(Pixel*Frame)               : 0.267
Stream size                      : 1.27 GiB (93%)
Writing library                  : XviD 64

Audio
ID                               : 1
Format                           : MPEG Audio
Format version                   : Version 1
Format profile                   : Layer 3
Codec ID                         : 55
Codec ID/Hint                    : MP3
Duration                         : 1h 43mn
Bit rate mode                    : Constant
Bit rate                         : 128 Kbps
Channel(s)                       : 2 channels
Sampling rate                    : 44.1 KHz
Resolution                       : 16 bits
Stream size                      : 95.2 MiB (7%)
Alignment                        : Split accross interleaves
Interleave, duration             : 33 ms (1.00 video frame)
Writing library                  : LAME3.98r
Encoding settings                : -m j -V 4 -q 2 -lowpass 17 -b 128

Plot:
A young woman, after witnessing her parents' murder as a child in Bogota, grows up to be a stone-cold assassin.

SOURCES
VIDEO: ............ Colombiana - Cam - 2011 - HP
AUDIO: ............ Colombiana - Cam - 2011 - HP Thanks Mate 

NOTES:
IMAGiNE bringing you another release..........
Colombiana CAM.........
Ok heres our first go at Colombiana......
Thanks to HP for the video, very decent first cam 
So first we made a script to sharpen 
and fix the white levels......
Video had a slight angle to it so
we rotated cropped and resized......
made some adjustments to the colors and yada yada Audio is cam audio we remuxed to our encode
Enjoy!
[/code]
Screens:
[img]http://img714.imageshack.us/img714/9806/87653999.jpg[/img]
[img]http://img849.imageshack.us/img849/8079/52664146.jpg[/img]
[img]http://img8.imageshack.us/img8/7874/58533213.jpg[/img]
[img]http://img189.imageshack.us/img189/6169/18653496.jpg[/img]